<svg width="54" height="18" viewBox="0 0 54 18" fill="none" xmlns="http://www.w3.org/2000/svg">
<path d="M47.7899 5.92578C49.13 5.92578 50.4151 6.44474 51.3627 7.36849C52.3102 8.29224 52.8426 9.54511 52.8426 10.8515V16.5981H49.4741V10.8515C49.4741 10.416 49.2967 9.9984 48.9809 9.69049C48.665 9.38257 48.2366 9.20959 47.7899 9.20959C47.3433 9.20959 46.9149 9.38257 46.599 9.69049C46.2832 9.9984 46.1057 10.416 46.1057 10.8515V16.5981H42.7373V10.8515C42.7373 9.54511 43.2696 8.29224 44.2172 7.36849C45.1647 6.44474 46.4499 5.92578 47.7899 5.92578V5.92578Z" stroke="white" stroke-width="2" stroke-linecap="round" stroke-linejoin="round"/>
<path d="M39.3684 6.74658H36V16.5981H39.3684V6.74658Z" stroke="white" stroke-width="2" stroke-linecap="round" stroke-linejoin="round"/>
<path d="M37.6842 4.28369C38.6144 4.28369 39.3684 3.54861 39.3684 2.64185C39.3684 1.73508 38.6144 1 37.6842 1C36.754 1 36 1.73508 36 2.64185C36 3.54861 36.754 4.28369 37.6842 4.28369Z" stroke="white" stroke-width="2" stroke-linecap="round" stroke-linejoin="round"/>
<path d="M13 1H5C2.79086 1 1 2.74588 1 4.89954V12.6986C1 14.8523 2.79086 16.5981 5 16.5981H13C15.2091 16.5981 17 14.8523 17 12.6986V4.89954C17 2.74588 15.2091 1 13 1Z" stroke="white" stroke-width="2" stroke-linecap="round" stroke-linejoin="round"/>
<path d="M12.2004 8.30705C12.2991 8.95612 12.1854 9.61902 11.8754 10.2015C11.5654 10.7839 11.0749 11.2562 10.4737 11.5512C9.87244 11.8462 9.19111 11.9489 8.52658 11.8447C7.86205 11.7404 7.24816 11.4345 6.77222 10.9706C6.29629 10.5066 5.98254 9.9081 5.87561 9.26026C5.76867 8.61243 5.874 7.94821 6.17661 7.3621C6.47922 6.77598 6.9637 6.29781 7.56114 5.9956C8.15858 5.69338 8.83856 5.58252 9.50435 5.67877C10.1835 5.77694 10.8122 6.08546 11.2977 6.55874C11.7832 7.03202 12.0996 7.64497 12.2004 8.30705Z" stroke="white" stroke-width="2" stroke-linecap="round" stroke-linejoin="round"/>
<path d="M13.4004 4.50977H13.4084" stroke="white" stroke-width="2" stroke-linecap="round" stroke-linejoin="round"/>
</svg>
