<svg width="132" height="46" viewBox="0 0 132 46" fill="none" xmlns="http://www.w3.org/2000/svg">
<path d="M51.4998 25.992V35.5953C51.4998 36.1589 51.3349 36.6098 51.0051 36.9028C50.6753 37.2184 50.2277 37.3537 49.6387 37.3537C49.0733 37.3537 48.6257 37.1959 48.2959 36.8803C47.966 36.5647 47.8011 36.1364 47.8011 35.5953V26.1723C47.8011 24.6394 47.4949 23.5348 46.9059 22.8134C46.3169 22.0921 45.3746 21.7314 44.1024 21.7314C42.6182 21.7314 41.4167 22.2048 40.4979 23.129C39.6027 24.0758 39.1315 25.3157 39.1315 26.8937V35.5728C39.1315 36.1138 38.9666 36.5421 38.6368 36.8577C38.307 37.1733 37.8594 37.3311 37.294 37.3311C36.7285 37.3311 36.2809 37.1733 35.9275 36.8577C35.5742 36.5421 35.4093 36.1138 35.4093 35.5728V20.5366C35.4093 20.0181 35.5977 19.5898 35.9511 19.2516C36.3045 18.9135 36.7521 18.7557 37.294 18.7557C37.8358 18.7557 38.2599 18.9135 38.5661 19.2291C38.8724 19.5447 39.0373 19.973 39.0373 20.4915V22.0019C39.6263 20.9198 40.4508 20.0857 41.4874 19.5222C42.5475 18.9586 43.7255 18.6655 45.0448 18.6655C49.356 18.7106 51.4998 21.1227 51.4998 25.992Z" fill="white"/>
<path d="M69.9226 33.048C70.1346 33.3185 70.2524 33.6566 70.2524 34.0849C70.2524 34.8063 69.8048 35.3924 68.9331 35.8884C68.085 36.3843 67.1427 36.7676 66.1297 37.0381C65.1166 37.3086 64.1507 37.4439 63.2084 37.4439C60.3813 37.4439 58.1433 36.6098 56.4942 34.9416C54.845 33.2734 54.0441 30.9966 54.0441 28.1336C54.0441 26.2851 54.3974 24.6394 55.1278 23.2192C55.8581 21.799 56.8711 20.6719 58.1668 19.9054C59.4861 19.1164 60.9703 18.7332 62.6194 18.7332C65.0224 18.7332 66.9071 19.4996 68.2971 21.0551C69.687 22.6106 70.3938 24.7071 70.3938 27.3446C70.3938 28.3365 69.9462 28.8324 69.0745 28.8324H57.7428C57.9784 32.6422 59.8159 34.5584 63.2084 34.5584C64.1036 34.5584 64.9046 34.4456 65.5643 34.1977C66.2239 33.9497 66.9307 33.6341 67.661 33.2283C67.7317 33.1832 67.9437 33.0705 68.2735 32.9127C68.6033 32.7549 68.886 32.6647 69.0981 32.6647C69.4043 32.6422 69.687 32.7775 69.9226 33.048ZM59.2741 22.8134C58.426 23.7152 57.9077 25.0001 57.7428 26.6458H67.1898C67.1191 24.9776 66.6951 23.6926 65.9176 22.7909C65.1402 21.8892 64.0565 21.4383 62.6665 21.4383C61.2766 21.4383 60.1222 21.8892 59.2741 22.8134Z" fill="white"/>
<path d="M89.9711 35.663C89.9711 36.1364 89.8062 36.5421 89.4764 36.8577C89.1466 37.1959 88.7461 37.3537 88.2749 37.3537C87.8037 37.3537 87.3797 37.1508 87.0027 36.7225L81.3958 30.3653L75.8124 36.7225C75.4119 37.1508 74.9878 37.3537 74.5402 37.3537C74.069 37.3537 73.6685 37.1733 73.3387 36.8352C73.0089 36.497 72.844 36.0913 72.844 35.6179C72.844 35.1445 73.0089 34.7387 73.3623 34.3555L79.1577 27.9307L73.645 21.7539C73.268 21.3256 73.1031 20.9198 73.1031 20.4915C73.1031 20.0181 73.268 19.6123 73.6214 19.2967C73.9748 18.9586 74.3517 18.8008 74.7993 18.8008C75.2705 18.8008 75.6946 19.0037 76.0715 19.432L81.3958 25.4961L86.72 19.432C87.1205 19.0037 87.5446 18.8008 88.0393 18.8008C88.4869 18.8008 88.8639 18.9586 89.2173 19.2967C89.5706 19.6349 89.7355 20.0406 89.7355 20.4915C89.7355 20.9649 89.5471 21.3707 89.1937 21.7539L83.681 27.9307L89.4293 34.3555C89.7827 34.7387 89.9711 35.167 89.9711 35.663Z" fill="white"/>
<path d="M104.083 34.9415C104.318 35.1669 104.436 35.5051 104.436 35.9108C104.436 36.4068 104.248 36.79 103.871 37.038C103.494 37.286 102.928 37.3987 102.198 37.3536L101.208 37.286C99.2296 37.1282 97.7454 36.5195 96.7795 35.46C95.79 34.3779 95.3188 32.7999 95.3188 30.7034V22.0243H93.1043C92.0206 22.0243 91.4788 21.5509 91.4788 20.5816C91.4788 20.1307 91.6201 19.7926 91.9028 19.5221C92.1855 19.2741 92.586 19.1388 93.1043 19.1388H95.2953V15.3291C95.2953 14.7655 95.4602 14.3146 95.79 13.999C96.1198 13.6834 96.5674 13.5256 97.1328 13.5256C97.6983 13.5256 98.1459 13.6834 98.4992 13.999C98.8526 14.3146 99.0175 14.7655 99.0175 15.3291V19.1388H102.646C103.164 19.1388 103.564 19.2741 103.847 19.5221C104.13 19.77 104.271 20.1307 104.271 20.5816C104.271 21.055 104.13 21.4157 103.847 21.6637C103.564 21.9116 103.164 22.0243 102.646 22.0243H98.994V30.9739C98.994 32.1236 99.2296 32.9803 99.7007 33.5213C100.172 34.0623 100.902 34.3779 101.892 34.4455L102.928 34.5132C103.47 34.5583 103.847 34.7161 104.083 34.9415Z" fill="white"/>
<path d="M107.641 36.9254C107.287 36.6323 107.099 36.1814 107.099 35.5953V12.7593C107.099 12.1731 107.287 11.7223 107.641 11.4067C107.994 11.0911 108.442 10.9558 108.984 10.9558C109.525 10.9558 109.973 11.1136 110.303 11.4067C110.656 11.7223 110.821 12.1731 110.821 12.7593V35.5953C110.821 36.1814 110.656 36.6323 110.303 36.9254C109.95 37.2184 109.525 37.3762 108.984 37.3762C108.442 37.3537 107.994 37.2184 107.641 36.9254Z" fill="white"/>
<path d="M129.338 19.0712C129.621 18.8909 129.927 18.8232 130.233 18.8232C130.705 18.8232 131.105 18.981 131.458 19.2966C131.812 19.6122 132 19.9955 132 20.4463C132 20.6943 131.953 20.9197 131.859 21.1452L121.658 42.9443C121.517 43.2824 121.305 43.5529 121.022 43.7333C120.739 43.9136 120.433 44.0038 120.127 44.0038C119.679 44.0038 119.279 43.846 118.925 43.5529C118.572 43.2599 118.383 42.8992 118.383 42.4483C118.383 42.2454 118.454 41.9975 118.572 41.7044L121.093 36.2715L114.025 21.1226C113.931 20.9197 113.884 20.6943 113.884 20.4689C113.884 19.9955 114.072 19.6122 114.473 19.2966C114.873 18.981 115.297 18.8232 115.792 18.8232C116.522 18.8232 117.04 19.1614 117.37 19.8602L123.048 32.5745L128.702 19.9053C128.843 19.5221 129.079 19.2516 129.338 19.0712Z" fill="white"/>
<path d="M12.2741 39.3374H0V6.46973H12.2741V11.0234V39.3374Z" fill="#E5E5E5"/>
<path d="M14.7947 45.6947L29.4247 39.2699V6.42476L14.7005 0V45.6947" fill="white"/>
<path d="M0 6.46973L12.2741 13.2552V32.6647L0 39.3374V6.46973Z" fill="white"/>
</svg>
