<svg width="63" height="105" viewBox="0 0 63 105" fill="none" xmlns="http://www.w3.org/2000/svg">
<path d="M51.0945 17.7376C50.4347 17.5177 49.7749 17.31 49.1152 17.1146C49.2252 16.6625 49.3229 16.2105 49.4206 15.7585C50.9234 8.47711 49.9338 2.62514 46.5983 0.694845C43.3851 -1.14993 38.1437 0.768147 32.8412 5.38619C32.3158 5.83823 31.8027 6.31469 31.314 6.79116C30.9841 6.47351 30.642 6.15587 30.2999 5.85044C24.7409 0.914752 19.1696 -1.16215 15.8342 0.780364C12.6331 2.63736 11.6801 8.14725 13.0241 15.0377C13.1585 15.7218 13.3051 16.3938 13.4761 17.0779C12.6942 17.2978 11.9245 17.5422 11.2036 17.7987C4.67938 20.0589 0 23.6263 0 27.3158C0 31.1275 4.98483 34.9515 11.7657 37.2727C12.3155 37.456 12.8652 37.6392 13.4273 37.798C13.244 38.5311 13.0852 39.2519 12.9386 39.9971C11.6557 46.7776 12.6575 52.1531 15.8586 53.9979C19.1574 55.9037 24.7042 53.949 30.1044 49.221C30.5321 48.8423 30.9597 48.4513 31.3873 48.0359C31.9249 48.5613 32.4869 49.0622 33.0489 49.5509C38.2781 54.0467 43.4462 55.8671 46.635 54.0223C49.9338 52.1164 51.0089 46.3378 49.6161 39.3007C49.5062 38.7632 49.384 38.2134 49.2496 37.6514C49.6406 37.5415 50.0193 37.4193 50.3981 37.2971C57.4477 34.9637 62.5547 31.1886 62.5547 27.3158C62.5547 23.614 57.7409 20.0222 51.0945 17.7376ZM34.5639 7.36536C39.1089 3.40703 43.3484 1.85546 45.2788 2.96722C47.3436 4.15227 48.1378 8.94136 46.8427 15.2331C46.7572 15.6485 46.6716 16.0517 46.5617 16.4548C43.8494 15.844 41.1004 15.4042 38.3392 15.1598C36.7509 12.8875 35.016 10.7128 33.1344 8.67258C33.6109 8.22055 34.0752 7.79295 34.5639 7.36536ZM20.428 33.6565C21.0511 34.7193 21.6864 35.7822 22.3584 36.8207C20.4524 36.613 18.5587 36.3076 16.6894 35.9044C17.227 34.1451 17.8989 32.3248 18.6809 30.4678C19.2429 31.5429 19.8171 32.6058 20.428 33.6565ZM16.726 18.9593C18.4854 18.5684 20.3547 18.2508 22.2973 18.0064C21.6498 19.0204 21.0145 20.0589 20.4158 21.1095C19.8171 22.148 19.2307 23.2109 18.6809 24.286C17.9112 22.4656 17.2636 20.6819 16.726 18.9593ZM20.0737 27.3769C20.8801 25.6909 21.7597 24.0416 22.6883 22.4168C23.6168 20.7919 24.6187 19.2159 25.6694 17.6643C27.5021 17.5299 29.3714 17.4566 31.2773 17.4566C33.1833 17.4566 35.0648 17.5299 36.8853 17.6643C37.9238 19.2037 38.9134 20.7797 39.8542 22.3923C40.7949 24.005 41.6746 25.6543 42.5054 27.328C41.6868 29.014 40.8071 30.6755 39.8664 32.3126C38.9378 33.9375 37.9482 35.5135 36.9097 37.0772C35.0893 37.2116 33.1955 37.2727 31.2773 37.2727C29.3592 37.2727 27.5021 37.2116 25.7061 37.1017C24.6431 35.5501 23.6413 33.9619 22.7005 32.337C21.7597 30.7122 20.8923 29.0629 20.0737 27.3769ZM42.1389 33.632C42.762 32.5569 43.3484 31.4696 43.9227 30.3701C44.7046 32.1415 45.3888 33.9375 45.9875 35.7822C44.0937 36.2098 42.1755 36.5397 40.2451 36.7596C40.9049 35.7334 41.528 34.6827 42.1389 33.632ZM43.8982 24.286C43.324 23.2109 42.7375 22.1358 42.1267 21.0851C41.528 20.0467 40.9049 19.0204 40.2574 18.0064C42.2244 18.2508 44.1059 18.5806 45.8653 18.9838C45.3033 20.7919 44.6435 22.5512 43.8982 24.286ZM31.3018 10.5418C32.5846 11.9345 33.7942 13.4006 34.9182 14.9155C32.4991 14.8055 30.0678 14.8055 27.6487 14.9155C28.846 13.3395 30.08 11.8735 31.3018 10.5418ZM17.1292 3.05274C19.1818 1.85546 23.739 3.56585 28.5406 7.81739C28.846 8.08616 29.1515 8.37937 29.4691 8.67258C27.5754 10.7128 25.8282 12.8875 24.2277 15.1598C21.4665 15.4042 18.7297 15.8318 16.0174 16.4304C15.8586 15.8073 15.7242 15.1721 15.5898 14.5368C14.4413 8.62371 15.1988 4.16449 17.1292 3.05274ZM14.1359 35.2569C13.6227 35.1103 13.1218 34.9515 12.6209 34.7804C10.0185 33.9619 7.06184 32.6669 4.92374 30.9687C3.68975 30.1135 2.85894 28.7941 2.62681 27.3158C2.62681 25.0801 6.4876 22.2213 12.0589 20.2788C12.7553 20.0344 13.4639 19.8145 14.1725 19.6068C15.0033 22.2579 16.0052 24.8602 17.1659 27.3769C15.993 29.9303 14.9789 32.5691 14.1359 35.2569ZM28.3817 47.2296C26.3658 49.0744 24.0322 50.5404 21.4909 51.5422C20.1348 52.1897 18.5709 52.2508 17.1781 51.7011C15.2355 50.5771 14.4291 46.2645 15.5287 40.4614C15.6631 39.7772 15.8097 39.0931 15.9808 38.4211C18.7175 39.0075 21.4787 39.4107 24.2766 39.6184C25.8893 41.903 27.6609 44.0898 29.5546 46.1423C29.1637 46.521 28.7727 46.8875 28.3817 47.2296ZM31.3751 44.2609C30.1289 42.917 28.8827 41.4265 27.6731 39.8261C28.846 39.8749 30.0556 39.8994 31.2773 39.8994C32.5358 39.8994 33.7697 39.8749 34.9915 39.8139C33.8675 41.3654 32.6579 42.8437 31.3751 44.2609ZM47.3436 47.926C47.2337 49.4165 46.5006 50.8092 45.3277 51.7499C43.3851 52.8739 39.2433 51.4078 34.7716 47.5717C34.2585 47.1319 33.7453 46.6554 33.22 46.1667C35.0893 44.102 36.812 41.9152 38.3758 39.6184C41.1737 39.3863 43.9593 38.9587 46.7083 38.3356C46.8305 38.8365 46.9404 39.3374 47.0382 39.8261C47.6368 42.465 47.7346 45.2138 47.3436 47.926ZM49.5672 34.7926C49.2252 34.9026 48.8831 35.0126 48.5287 35.1103C47.6735 32.447 46.6228 29.8447 45.4132 27.3158C46.5861 24.8235 47.5758 22.2579 48.4066 19.6313C49.0419 19.8145 49.6528 20.01 50.2392 20.2055C55.9327 22.1602 59.9279 25.0679 59.9279 27.2914C59.9279 29.6859 55.6639 32.7768 49.5672 34.7926ZM31.2773 32.9601C34.3684 32.9601 36.873 30.4556 36.873 27.3647C36.873 24.2738 34.3684 21.7693 31.2773 21.7693C28.1863 21.7693 25.6816 24.2738 25.6816 27.3647C25.6816 30.4556 28.1863 32.9601 31.2773 32.9601Z" fill="black" fill-opacity="0.75"/>
<path d="M2.76403 89.4255H4.95863V83.9213H7.94158C7.9913 83.9213 8.03391 83.9213 8.08363 83.9213L11.0382 89.4255H13.5382L10.3137 83.5378C12.0964 82.8772 12.9842 81.3929 12.9842 79.4397C12.9842 76.7622 11.3223 74.8801 7.94869 74.8801H2.76403V89.4255ZM4.95863 82.0321V76.7622H7.71431C9.8805 76.7622 10.7754 77.792 10.7754 79.4397C10.7754 81.0804 9.8805 82.0321 7.74272 82.0321H4.95863ZM20.0492 89.6457C22.4284 89.6457 24.1117 88.4738 24.5946 86.6983L22.5847 86.336C22.2012 87.3659 21.2779 87.8914 20.0705 87.8914C18.2523 87.8914 17.0307 86.7125 16.9739 84.6102H24.7296V83.8574C24.7296 79.9156 22.3716 78.3744 19.9 78.3744C16.8603 78.3744 14.8574 80.6897 14.8574 84.042C14.8574 87.4298 16.8319 89.6457 20.0492 89.6457ZM16.981 83.0193C17.0662 81.471 18.1884 80.1287 19.9142 80.1287C21.562 80.1287 22.6415 81.3503 22.6486 83.0193H16.981ZM30.2605 89.667C32.0645 89.667 33.0801 88.7508 33.4849 87.9341H33.5701V89.4255H35.644V82.1812C35.644 79.0065 33.144 78.3744 31.411 78.3744C29.4366 78.3744 27.6184 79.1699 26.9082 81.1585L28.9039 81.613C29.2164 80.8389 30.0119 80.0932 31.4395 80.0932C32.8102 80.0932 33.5133 80.8105 33.5133 82.0463V82.096C33.5133 82.8701 32.7179 82.8559 30.7576 83.0832C28.6909 83.3247 26.5744 83.8645 26.5744 86.3432C26.5744 88.488 28.1866 89.667 30.2605 89.667ZM30.7221 87.9625C29.5218 87.9625 28.6554 87.4227 28.6554 86.3716C28.6554 85.2352 29.6639 84.8304 30.8926 84.667C31.5815 84.5747 33.215 84.39 33.5204 84.0846V85.4909C33.5204 86.7835 32.4906 87.9625 30.7221 87.9625ZM43.0676 89.6457C45.6458 89.6457 47.3148 88.0974 47.5492 85.9738H45.4824C45.2125 87.1528 44.2963 87.8488 43.0819 87.8488C41.285 87.8488 40.1273 86.3503 40.1273 83.971C40.1273 81.6343 41.3063 80.1642 43.0819 80.1642C44.4313 80.1642 45.2551 81.0164 45.4824 82.0392H47.5492C47.3219 79.8375 45.525 78.3744 43.0463 78.3744C39.9711 78.3744 37.9824 80.6897 37.9824 84.0207C37.9824 87.3091 39.9 89.6457 43.0676 89.6457ZM54.9125 78.5164H52.6752V75.9028H50.5517V78.5164H48.9537V80.221H50.5517V86.6628C50.5446 88.6443 52.0574 89.6031 53.7335 89.5676C54.4082 89.5605 54.8627 89.4326 55.1113 89.3403L54.7278 87.586C54.5858 87.6145 54.323 87.6784 53.9821 87.6784C53.2931 87.6784 52.6752 87.4511 52.6752 86.2224V80.221H54.9125V78.5164Z" fill="black" fill-opacity="0.75"/>
</svg>
