<svg width="85" height="101" viewBox="0 0 85 101" fill="none" xmlns="http://www.w3.org/2000/svg">
<path d="M42.3124 2.23011C64.976 2.23011 82.4034 11.8143 82.4034 22.341C82.4034 32.8676 64.9628 42.4518 42.3124 42.4518C19.6488 42.4518 2.2214 32.8676 2.2214 22.341C2.2214 11.8143 19.662 2.23011 42.3124 2.23011ZM42.3124 0C18.948 0 0 9.99569 0 22.341C0 34.6862 18.948 44.6819 42.3124 44.6819C65.6768 44.6819 84.6248 34.6862 84.6248 22.341C84.6248 9.99569 65.6768 0 42.3124 0ZM28.8518 20.5489C27.8072 25.9251 24.1181 25.3675 19.5827 25.3675L21.3942 15.9958C26.4188 15.9958 29.8302 15.4515 28.8518 20.5489ZM12.8788 34.8588H17.7315L18.8819 28.9118C24.3164 28.9118 27.6882 29.3101 30.8087 26.3764C34.2598 23.1905 35.159 17.5223 32.6996 14.6816C31.417 13.1948 29.3542 12.4647 26.551 12.4647H17.2026L12.8788 34.8588ZM37.4333 6.5045H42.2595L41.1092 12.4515C45.2743 12.4515 49.1353 12.1462 50.9997 13.8718C52.9566 15.6772 52.0178 17.9869 49.9022 28.8853H45.0098C47.0461 18.3453 47.4296 17.4692 46.6891 16.6728C45.9751 15.9028 44.3487 16.0621 40.4216 16.0621L37.9357 28.8853H33.1095L37.4333 6.5045ZM66.7743 20.5489C65.7165 26.0047 61.9216 25.3675 57.5052 25.3675L59.3167 15.9958C64.3678 15.9958 67.7527 15.4515 66.7743 20.5489ZM50.8013 34.8588H55.6673L56.8176 28.9118C62.5298 28.9118 65.69 29.2437 68.7445 26.3764C72.1956 23.1905 73.0947 17.5223 70.6353 14.6816C69.3527 13.1948 67.29 12.4647 64.4868 12.4647H55.1384L50.8013 34.8588Z" fill="black" fill-opacity="0.75"/>
<path d="M24.8832 85.2764H27.0778V80.1627H30.0607C33.4343 80.1627 35.1033 78.1244 35.1033 75.4397C35.1033 72.7622 33.4485 70.7309 30.0678 70.7309H24.8832V85.2764ZM27.0778 78.3019V72.613H29.8335C32.0067 72.613 32.8945 73.792 32.8945 75.4397C32.8945 77.0874 32.0067 78.3019 29.8619 78.3019H27.0778ZM37.6761 85.2764H39.8707V78.934H47.1222V85.2764H49.3239V70.7309H47.1222V77.0519H39.8707V70.7309H37.6761V85.2764ZM52.5199 85.2764H54.7145V80.1627H57.6974C61.071 80.1627 62.7401 78.1244 62.7401 75.4397C62.7401 72.7622 61.0852 70.7309 57.7045 70.7309H52.5199V85.2764ZM54.7145 78.3019V72.613H57.4702C59.6435 72.613 60.5312 73.792 60.5312 75.4397C60.5312 77.0874 59.6435 78.3019 57.4986 78.3019H54.7145Z" fill="black"/>
</svg>
