<svg width="104" height="108" viewBox="0 0 104 108" fill="none" xmlns="http://www.w3.org/2000/svg">
<path d="M22.0365 31.2773V62.5547H84.5912V0H22.0365V31.2773ZM72.4438 28.783C73.9435 29.1361 75.3064 29.9218 76.3633 31.0428C76.9341 31.6527 77.7883 32.7728 77.8607 33.0484C77.8802 33.1305 75.163 34.9524 73.5131 35.9709C73.4525 36.0119 73.2082 35.7578 72.9423 35.359C72.1389 34.1881 71.2924 33.6798 70.0003 33.5879C68.1061 33.4648 66.8843 34.4539 66.8941 36.1136C66.8841 36.5197 66.9748 36.922 67.158 37.2845C67.5763 38.1505 68.3602 38.6686 70.7822 39.7183C75.2627 41.6419 77.1765 42.9145 78.367 44.7168C79.7002 46.7323 79.9954 49.9499 79.1 52.3524C78.1031 54.9484 75.638 56.7195 72.176 57.3001C71.1067 57.4936 68.5615 57.4623 67.4101 57.2493C64.8962 56.8016 62.5133 55.5583 61.0472 53.9299C60.4666 53.2985 59.3465 51.6389 59.4188 51.5275C59.4501 51.4864 59.7042 51.3242 59.9896 51.1599L62.3119 49.815L64.1143 48.7672L64.4916 49.3263C65.0213 50.1297 66.1708 51.2303 66.8647 51.5959C68.8606 52.6554 71.5993 52.5029 72.954 51.2909C73.5034 50.8335 73.8103 50.1298 73.7692 49.4182C73.7692 48.6949 73.6773 48.3704 73.3001 47.8289C72.8113 47.1369 71.8242 46.5465 69.0033 45.3248C65.7759 43.929 64.3801 43.0748 63.1193 41.7005C62.3255 40.796 61.7385 39.7293 61.399 38.5747C61.1644 37.6892 61.1038 35.4685 61.2876 34.583C61.9503 31.4572 64.3117 29.2893 67.7014 28.6481C68.802 28.435 71.3667 28.5152 72.4458 28.781L72.4438 28.783ZM57.763 31.4005L57.7826 33.9555H49.6368V57.0987H43.8739V33.9555H35.7399V31.4513C35.7399 30.0556 35.7712 28.8963 35.8103 28.8651C35.8415 28.824 40.7892 28.8045 46.7964 28.8142L57.7318 28.8455L57.763 31.4005Z" fill="black" fill-opacity="0.75"/>
<path d="M0.947088 80.3438H5.47834V93H7.66584V80.3438H12.2042V78.4545H0.947088V80.3438ZM14.6136 97.0909C16.3679 97.0909 17.4759 96.1747 18.108 94.456L22.6179 82.1122L20.3239 82.0909L17.5611 90.5568H17.4474L14.6847 82.0909H12.4119L16.4034 93.142L16.1406 93.8665C15.6009 95.3153 14.8409 95.4361 13.6761 95.1165L13.1648 96.8565C13.4205 96.9702 13.9744 97.0909 14.6136 97.0909ZM24.619 97.0909H26.7425V91.3026H26.8704C27.2539 91.9986 28.0352 93.2131 30.0238 93.2131C32.6658 93.2131 34.5835 91.0966 34.5835 87.5668C34.5835 84.0298 32.6374 81.9489 30.0025 81.9489C27.9783 81.9489 27.2468 83.1847 26.8704 83.8594H26.6928V82.0909H24.619V97.0909ZM26.6999 87.5455C26.6999 85.2656 27.6942 83.7528 29.5479 83.7528C31.4727 83.7528 32.4386 85.3793 32.4386 87.5455C32.4386 89.733 31.4442 91.402 29.5479 91.402C27.7227 91.402 26.6999 89.8395 26.6999 87.5455ZM41.6644 93.2202C44.0437 93.2202 45.7269 92.0483 46.2099 90.2727L44.1999 89.9105C43.8164 90.9403 42.8931 91.4659 41.6857 91.4659C39.8675 91.4659 38.646 90.2869 38.5891 88.1847H46.3448V87.4318C46.3448 83.4901 43.9869 81.9489 41.5153 81.9489C38.4755 81.9489 36.4727 84.2642 36.4727 87.6165C36.4727 91.0043 38.4471 93.2202 41.6644 93.2202ZM38.5962 86.5938C38.6815 85.0455 39.8036 83.7031 41.5295 83.7031C43.1772 83.7031 44.2567 84.9247 44.2638 86.5938H38.5962ZM56.8047 82.2756H58.9212C58.8572 79.946 56.7976 78.2557 53.843 78.2557C50.924 78.2557 48.6868 79.9247 48.6868 82.4318C48.6868 84.456 50.1357 85.642 52.4723 86.2741L54.1911 86.7429C55.7464 87.1548 56.9467 87.6662 56.9467 88.9588C56.9467 90.3793 55.5902 91.3168 53.7223 91.3168C52.032 91.3168 50.6257 90.5639 50.4979 88.9801H48.2962C48.4382 91.6151 50.4766 93.2415 53.7365 93.2415C57.1527 93.2415 59.12 91.4446 59.12 88.9801C59.12 86.3594 56.7834 85.3438 54.9368 84.8892L53.5163 84.5199C52.38 84.2287 50.8672 83.696 50.8743 82.304C50.8743 81.0682 52.0036 80.152 53.7933 80.152C55.4624 80.152 56.6484 80.9332 56.8047 82.2756ZM66.1673 93.2202C68.7454 93.2202 70.4144 91.6719 70.6488 89.5483H68.582C68.3121 90.7273 67.396 91.4233 66.1815 91.4233C64.3846 91.4233 63.2269 89.9247 63.2269 87.5455C63.2269 85.2088 64.4059 83.7386 66.1815 83.7386C67.5309 83.7386 68.3548 84.5909 68.582 85.6136H70.6488C70.4215 83.4119 68.6246 81.9489 66.146 81.9489C63.0707 81.9489 61.082 84.2642 61.082 87.5952C61.082 90.8835 62.9996 93.2202 66.1673 93.2202ZM72.9197 93H75.0433V86.3381C75.0433 84.9105 76.1442 83.8807 77.6499 83.8807C78.0902 83.8807 78.5874 83.9588 78.7578 84.0085V81.9773C78.5447 81.9489 78.1257 81.9276 77.8558 81.9276C76.5774 81.9276 75.4837 82.652 75.0859 83.8239H74.9723V82.0909H72.9197V93ZM80.5955 93H82.7191V82.0909H80.5955V93ZM81.668 80.4077C82.3995 80.4077 83.0103 79.8395 83.0103 79.1435C83.0103 78.4474 82.3995 77.8722 81.668 77.8722C80.9293 77.8722 80.3256 78.4474 80.3256 79.1435C80.3256 79.8395 80.9293 80.4077 81.668 80.4077ZM85.576 97.0909H87.6996V91.3026H87.8274C88.2109 91.9986 88.9922 93.2131 90.9808 93.2131C93.6229 93.2131 95.5405 91.0966 95.5405 87.5668C95.5405 84.0298 93.5945 81.9489 90.9595 81.9489C88.9354 81.9489 88.2038 83.1847 87.8274 83.8594H87.6499V82.0909H85.576V97.0909ZM87.657 87.5455C87.657 85.2656 88.6513 83.7528 90.505 83.7528C92.4297 83.7528 93.3956 85.3793 93.3956 87.5455C93.3956 89.733 92.4013 91.402 90.505 91.402C88.6797 91.402 87.657 89.8395 87.657 87.5455ZM103.012 82.0909H100.775V79.4773H98.6513V82.0909H97.0533V83.7955H98.6513V90.2372C98.6442 92.2188 100.157 93.1776 101.833 93.142C102.508 93.1349 102.962 93.0071 103.211 92.9148L102.827 91.1605C102.685 91.1889 102.423 91.2528 102.082 91.2528C101.393 91.2528 100.775 91.0256 100.775 89.7969V83.7955H103.012V82.0909Z" fill="black"/>
</svg>
