<svg width="81" height="97" viewBox="0 0 81 97" fill="none" xmlns="http://www.w3.org/2000/svg">
<path d="M38.7011 38.5337C38.4958 38.5337 38.2906 38.4747 38.1049 38.3764L36.2282 37.2557C35.9448 37.0984 36.0816 37.0395 36.1794 37.01C36.5508 36.8822 36.629 36.8527 37.0297 36.6168C37.0688 36.5971 37.1275 36.6069 37.1665 36.6266L38.6131 37.4917C38.662 37.5211 38.7402 37.5211 38.7891 37.4917L44.4385 34.2083C44.4874 34.1788 44.5265 34.1198 44.5265 34.051V27.4942C44.5265 27.4253 44.4972 27.3664 44.4385 27.3369L38.7891 24.0634C38.7402 24.0339 38.6718 24.0339 38.6131 24.0634L32.9637 27.3369C32.905 27.3664 32.8757 27.4352 32.8757 27.4942V34.051C32.8757 34.11 32.9148 34.169 32.9637 34.1985L34.508 35.093C35.3486 35.5158 35.8666 35.0144 35.8666 34.5229V28.0447C35.8666 27.9562 35.935 27.8775 36.0327 27.8775H36.7463C36.8342 27.8775 36.9124 27.9464 36.9124 28.0447V34.5229C36.9124 35.6534 36.3064 36.2924 35.241 36.2924C34.9185 36.2924 34.6546 36.2924 33.9411 35.9385L32.4554 35.0832C32.0938 34.8669 31.8592 34.4737 31.8592 34.051V27.4942C31.8592 27.0715 32.084 26.6684 32.4554 26.462L38.1049 23.1786C38.4665 22.9722 38.9357 22.9722 39.2875 23.1786L44.937 26.462C45.2987 26.6782 45.5332 27.0715 45.5332 27.4942V34.051C45.5332 34.4737 45.3084 34.8768 44.937 35.0832L39.2875 38.3666C39.1214 38.4747 38.9161 38.5337 38.7011 38.5337ZM43.2656 32.0653C43.2656 30.8365 42.4446 30.5121 40.7048 30.2762C38.9454 30.0402 38.7695 29.9223 38.7695 29.5094C38.7695 29.1653 38.9161 28.7131 40.2161 28.7131C41.3792 28.7131 41.8093 28.9687 41.9852 29.7551C42.0048 29.8338 42.0634 29.8829 42.1416 29.8829H42.8747C42.9235 29.8829 42.9626 29.8633 42.992 29.8338C43.0213 29.7945 43.0408 29.7551 43.0311 29.706C42.9138 28.3494 42.0243 27.7203 40.2161 27.7203C38.6033 27.7203 37.6455 28.4084 37.6455 29.5487C37.6455 30.7972 38.6034 31.1314 40.1477 31.2887C41.995 31.4755 42.1416 31.7409 42.1416 32.1046C42.1416 32.7436 41.6333 33.009 40.4409 33.009C38.9454 33.009 38.6131 32.6354 38.5056 31.8883C38.4958 31.8097 38.4274 31.7507 38.3394 31.7507H37.6064C37.5184 31.7507 37.4402 31.8195 37.4402 31.9178C37.4402 32.8714 37.9583 34.0117 40.4311 34.0117C42.2393 34.0117 43.2656 33.3039 43.2656 32.0653ZM48.5926 27.1403C48.5926 27.7399 48.1038 28.2314 47.5076 28.2314C46.9114 28.2314 46.4227 27.7399 46.4227 27.1403C46.4227 26.5209 46.9309 26.0491 47.5076 26.0491C48.0941 26.0393 48.5926 26.5209 48.5926 27.1403ZM48.4166 27.1403C48.4166 26.6291 48.0061 26.226 47.4978 26.226C46.9994 26.226 46.5888 26.6291 46.5888 27.1403C46.5888 27.6514 46.9994 28.0643 47.4978 28.0643C48.0061 28.0545 48.4166 27.6416 48.4166 27.1403ZM47.9768 27.7497H47.7227C47.7129 27.6908 47.6738 27.3762 47.6738 27.3664C47.6542 27.2975 47.6347 27.2582 47.5467 27.2582H47.3317V27.7497H47.0971V26.5209H47.5174C47.664 26.5209 47.9475 26.5209 47.9475 26.8454C47.9475 27.0714 47.8008 27.1206 47.7129 27.1501C47.879 27.1599 47.8888 27.2681 47.9181 27.4253C47.9279 27.5236 47.9475 27.6908 47.9768 27.7497ZM47.7031 26.8847C47.7031 26.7176 47.5858 26.7176 47.5272 26.7176H47.3317V27.0616H47.5174C47.6738 27.0616 47.7031 26.9535 47.7031 26.8847ZM21.2053 12.8764C21.2053 12.611 21.0685 12.375 20.8437 12.2472L14.8521 8.77711C14.7544 8.71812 14.6371 8.68863 14.5198 8.6788H14.4612C14.3439 8.6788 14.2364 8.71812 14.1288 8.77711L8.14704 12.2472C7.92224 12.375 7.7854 12.6208 7.7854 12.8764L7.79517 22.2152C7.79517 22.343 7.86359 22.461 7.97111 22.5298C8.07863 22.5986 8.21546 22.5986 8.33275 22.5298L11.8906 20.4753C12.1154 20.3376 12.2522 20.1017 12.2522 19.8461V15.4814C12.2522 15.2258 12.389 14.9801 12.6138 14.8523L14.1288 13.9774C14.2461 13.9086 14.3634 13.8791 14.4905 13.8791C14.6175 13.8791 14.7446 13.9086 14.8521 13.9774L16.3671 14.8523C16.5919 14.9801 16.7288 15.2258 16.7288 15.4814V19.8461C16.7288 20.1017 16.8656 20.3475 17.0904 20.4753L20.6482 22.5298C20.7557 22.5986 20.9023 22.5986 21.0098 22.5298C21.1174 22.4708 21.1858 22.343 21.1858 22.2152L21.2053 12.8764ZM53.9683 2.68227V20.0231C53.9683 20.2787 53.8315 20.5244 53.6067 20.6522L47.6151 24.1322C47.3903 24.26 47.1167 24.26 46.8918 24.1322L40.9003 20.6522C40.6755 20.5244 40.5386 20.2787 40.5386 20.0231V13.0632C40.5386 12.8076 40.6755 12.5618 40.9003 12.434L46.8918 8.95405C47.1167 8.82626 47.3903 8.82626 47.6151 8.95405L49.1106 9.81913C49.2767 9.91743 49.4918 9.78963 49.4918 9.60286V0.362297C49.4918 0.0870458 49.785 -0.0899011 50.0294 0.0477242L53.5969 2.05312C53.8217 2.17109 53.9683 2.41685 53.9683 2.68227ZM49.4722 15.3536C49.4722 15.2848 49.4331 15.2258 49.3843 15.1963L47.3317 13.997C47.273 13.9675 47.2046 13.9675 47.146 13.997L45.0934 15.1963C45.0348 15.2258 45.0054 15.2848 45.0054 15.3536V17.7424C45.0054 17.8112 45.0445 17.8702 45.0934 17.8997L47.146 19.0892C47.2046 19.1187 47.273 19.1187 47.3219 19.0892L49.3745 17.8997C49.4331 17.8702 49.4625 17.8112 49.4625 17.7424V15.3536H49.4722ZM69.9784 15.2848C70.2032 15.157 70.3401 14.9113 70.3401 14.6557V12.9747C70.3401 12.7191 70.2032 12.4733 69.9784 12.3455L64.026 8.86558C63.8012 8.73778 63.5275 8.73778 63.3027 8.86558L57.3111 12.3455C57.0863 12.4733 56.9495 12.7191 56.9495 12.9747V19.9346C56.9495 20.2 57.0863 20.4359 57.3111 20.5637L63.2636 23.9749C63.4786 24.1027 63.7523 24.1027 63.9771 23.9749L67.574 21.9597C67.8183 21.822 67.8183 21.4681 67.574 21.3305L61.5433 17.8505C61.426 17.7817 61.3576 17.6638 61.3576 17.536V15.3536C61.3576 15.2258 61.426 15.1079 61.5433 15.0391L63.42 13.9479C63.5275 13.8791 63.6741 13.8791 63.7816 13.9479L65.6582 15.0391C65.7658 15.1079 65.844 15.2258 65.844 15.3536V17.0641C65.844 17.3394 66.147 17.5163 66.3913 17.3787L69.9784 15.2848ZM62.423 15.6289C62.3839 15.6584 62.3546 15.6977 62.3546 15.7468V17.0838C62.3546 17.1329 62.3839 17.1821 62.423 17.2017L63.5763 17.8702C63.6154 17.8997 63.6741 17.8997 63.7132 17.8702L64.8665 17.2017C64.9056 17.1723 64.935 17.1329 64.935 17.0838V15.7468C64.935 15.6977 64.9056 15.6485 64.8665 15.6289L63.7132 14.9604C63.6741 14.9309 63.6154 14.9309 63.5763 14.9604L62.423 15.6289ZM37.5771 19.9051V12.9845C37.5771 12.7289 37.4207 12.4832 37.1959 12.3554L31.2239 8.89507C31.0186 8.77711 30.7351 8.75744 30.5006 8.89507L24.5286 12.3554C24.3037 12.4832 24.1474 12.7191 24.1474 12.9845V19.9051C24.1474 20.1803 24.3331 20.4163 24.5383 20.5342L30.5201 23.9945C30.7547 24.1322 31.0284 24.1223 31.2434 23.9945L37.2056 20.5342C37.3816 20.4359 37.5086 20.2688 37.5575 20.0722C37.5673 20.0231 37.5771 19.9641 37.5771 19.9051ZM30.3149 7.62695L30.2367 7.6761H30.3442L30.3149 7.62695ZM37.7628 20.4261L37.7237 20.3573V20.4458L37.7628 20.4261Z" fill="black" fill-opacity="0.75"/>
<path d="M13.6135 66.8374H11.4402V77.5192H11.3052L3.90465 66.8374H1.8734V81.3828H4.068V70.7152H4.20295L11.5964 81.3828H13.6135V66.8374ZM21.2395 81.603C24.3148 81.603 26.3248 79.3516 26.3248 75.978C26.3248 72.5831 24.3148 70.3317 21.2395 70.3317C18.1642 70.3317 16.1543 72.5831 16.1543 75.978C16.1543 79.3516 18.1642 81.603 21.2395 81.603ZM21.2466 79.8203C19.2367 79.8203 18.2992 78.0661 18.2992 75.9709C18.2992 73.8828 19.2367 72.1072 21.2466 72.1072C23.2424 72.1072 24.1799 73.8828 24.1799 75.9709C24.1799 78.0661 23.2424 79.8203 21.2466 79.8203ZM32.7789 81.5959C34.7676 81.5959 35.5488 80.3814 35.9324 79.6854H36.1099V81.3828H38.1838V66.8374H36.0602V72.2422H35.9324C35.5488 71.5675 34.8244 70.3317 32.7931 70.3317C30.1582 70.3317 28.2193 72.4126 28.2193 75.9496C28.2193 79.4794 30.1298 81.5959 32.7789 81.5959ZM33.2477 79.7848C31.3514 79.7848 30.3642 78.1158 30.3642 75.9283C30.3642 73.7621 31.3301 72.1357 33.2477 72.1357C35.1014 72.1357 36.0957 73.6484 36.0957 75.9283C36.0957 78.2223 35.0801 79.7848 33.2477 79.7848ZM45.9164 81.603C48.2956 81.603 49.9789 80.4311 50.4618 78.6555L48.4519 78.2933C48.0684 79.3232 47.1451 79.8487 45.9377 79.8487C44.1195 79.8487 42.8979 78.6697 42.8411 76.5675H50.5968V75.8146C50.5968 71.8729 48.2388 70.3317 45.7672 70.3317C42.7275 70.3317 40.7246 72.647 40.7246 75.9993C40.7246 79.3871 42.699 81.603 45.9164 81.603ZM42.8482 74.9766C42.9334 73.4283 44.0556 72.0859 45.7814 72.0859C47.4292 72.0859 48.5087 73.3075 48.5158 74.9766H42.8482ZM64.0698 66.8374V77.1499C64.0627 78.826 63.2814 79.7209 61.8894 79.7209C60.6039 79.7209 59.709 78.9538 59.7019 77.7464H57.5215C57.5215 80.2038 59.3681 81.5817 61.8326 81.5817C64.503 81.5817 66.2502 79.9482 66.2573 77.1499V66.8374H64.0698ZM77.3848 70.6584H79.5012C79.4373 68.3288 77.3777 66.6385 74.4231 66.6385C71.5041 66.6385 69.2669 68.3075 69.2669 70.8146C69.2669 72.8388 70.7157 74.0249 73.0524 74.657L74.7711 75.1257C76.3265 75.5376 77.5268 76.049 77.5268 77.3416C77.5268 78.7621 76.1703 79.6996 74.3024 79.6996C72.612 79.6996 71.2058 78.9467 71.0779 77.3629H68.8762C69.0183 79.9979 71.0566 81.6243 74.3166 81.6243C77.7328 81.6243 79.7001 79.8274 79.7001 77.3629C79.7001 74.7422 77.3635 73.7266 75.5169 73.272L74.0964 72.9027C72.96 72.6115 71.4473 72.0788 71.4544 70.6868C71.4544 69.451 72.5836 68.5348 74.3734 68.5348C76.0424 68.5348 77.2285 69.3161 77.3848 70.6584Z" fill="black"/>
</svg>
