<svg width="102" height="108" viewBox="0 0 102 108" fill="none" xmlns="http://www.w3.org/2000/svg">
<path d="M7.71431 78.4545V88.767C7.70721 90.4432 6.92596 91.3381 5.53391 91.3381C4.2484 91.3381 3.35352 90.571 3.34641 89.3636H1.16602C1.16602 91.821 3.01261 93.1989 5.4771 93.1989C8.14755 93.1989 9.89471 91.5653 9.90181 88.767V78.4545H7.71431ZM16.1003 93.2415C17.9043 93.2415 18.9199 92.3253 19.3248 91.5085H19.41V93H21.4838V85.7557C21.4838 82.581 18.9838 81.9489 17.2509 81.9489C15.2765 81.9489 13.4583 82.7443 12.748 84.733L14.7438 85.1875C15.0563 84.4134 15.8517 83.6676 17.2793 83.6676C18.65 83.6676 19.3532 84.3849 19.3532 85.6207V85.6705C19.3532 86.4446 18.5577 86.4304 16.5975 86.6577C14.5307 86.8991 12.4142 87.4389 12.4142 89.9176C12.4142 92.0625 14.0265 93.2415 16.1003 93.2415ZM16.562 91.5369C15.3617 91.5369 14.4952 90.9972 14.4952 89.946C14.4952 88.8097 15.5037 88.4048 16.7324 88.2415C17.4213 88.1491 19.0549 87.9645 19.3603 87.6591V89.0653C19.3603 90.358 18.3304 91.5369 16.562 91.5369ZM33.2541 82.0909H30.9743L28.2186 90.4858H28.1049L25.3422 82.0909H23.0623L27.0254 93H29.2981L33.2541 82.0909ZM38.0925 93.2415C39.8965 93.2415 40.9121 92.3253 41.3169 91.5085H41.4022V93H43.476V85.7557C43.476 82.581 40.976 81.9489 39.2431 81.9489C37.2686 81.9489 35.4505 82.7443 34.7402 84.733L36.736 85.1875C37.0485 84.4134 37.8439 83.6676 39.2715 83.6676C40.6422 83.6676 41.3453 84.3849 41.3453 85.6207V85.6705C41.3453 86.4446 40.5499 86.4304 38.5897 86.6577C36.5229 86.8991 34.4064 87.4389 34.4064 89.9176C34.4064 92.0625 36.0186 93.2415 38.0925 93.2415ZM38.5542 91.5369C37.3539 91.5369 36.4874 90.9972 36.4874 89.946C36.4874 88.8097 37.4959 88.4048 38.7246 88.2415C39.4135 88.1491 41.0471 87.9645 41.3525 87.6591V89.0653C41.3525 90.358 40.3226 91.5369 38.5542 91.5369ZM54.4082 82.2756H56.5247C56.4608 79.946 54.4011 78.2557 51.4466 78.2557C48.5275 78.2557 46.2903 79.9247 46.2903 82.4318C46.2903 84.456 47.7392 85.642 50.0758 86.2741L51.7946 86.7429C53.35 87.1548 54.5502 87.6662 54.5502 88.9588C54.5502 90.3793 53.1937 91.3168 51.3258 91.3168C49.6355 91.3168 48.2292 90.5639 48.1014 88.9801H45.8997C46.0417 91.6151 48.0801 93.2415 51.34 93.2415C54.7562 93.2415 56.7235 91.4446 56.7235 88.9801C56.7235 86.3594 54.3869 85.3438 52.5403 84.8892L51.1199 84.5199C49.9835 84.2287 48.4707 83.696 48.4778 82.304C48.4778 81.0682 49.6071 80.152 51.3968 80.152C53.0659 80.152 54.252 80.9332 54.4082 82.2756ZM63.7708 93.2202C66.3489 93.2202 68.0179 91.6719 68.2523 89.5483H66.1855C65.9157 90.7273 64.9995 91.4233 63.785 91.4233C61.9881 91.4233 60.8304 89.9247 60.8304 87.5455C60.8304 85.2088 62.0094 83.7386 63.785 83.7386C65.1344 83.7386 65.9583 84.5909 66.1855 85.6136H68.2523C68.025 83.4119 66.2282 81.9489 63.7495 81.9489C60.6742 81.9489 58.6855 84.2642 58.6855 87.5952C58.6855 90.8835 60.6032 93.2202 63.7708 93.2202ZM70.5233 93H72.6468V86.3381C72.6468 84.9105 73.7477 83.8807 75.2534 83.8807C75.6937 83.8807 76.1909 83.9588 76.3613 84.0085V81.9773C76.1483 81.9489 75.7292 81.9276 75.4593 81.9276C74.1809 81.9276 73.0872 82.652 72.6895 83.8239H72.5758V82.0909H70.5233V93ZM78.199 93H80.3226V82.0909H78.199V93ZM79.2715 80.4077C80.003 80.4077 80.6138 79.8395 80.6138 79.1435C80.6138 78.4474 80.003 77.8722 79.2715 77.8722C78.5328 77.8722 77.9292 78.4474 77.9292 79.1435C77.9292 79.8395 78.5328 80.4077 79.2715 80.4077ZM83.1795 97.0909H85.3031V91.3026H85.4309C85.8145 91.9986 86.5957 93.2131 88.5843 93.2131C91.2264 93.2131 93.144 91.0966 93.144 87.5668C93.144 84.0298 91.198 81.9489 88.563 81.9489C86.5389 81.9489 85.8074 83.1847 85.4309 83.8594H85.2534V82.0909H83.1795V97.0909ZM85.2605 87.5455C85.2605 85.2656 86.2548 83.7528 88.1085 83.7528C90.0332 83.7528 90.9991 85.3793 90.9991 87.5455C90.9991 89.733 90.0048 91.402 88.1085 91.402C86.2832 91.402 85.2605 89.8395 85.2605 87.5455ZM100.616 82.0909H98.3784V79.4773H96.2548V82.0909H94.6568V83.7955H96.2548V90.2372C96.2477 92.2188 97.7605 93.1776 99.4366 93.142C100.111 93.1349 100.566 93.0071 100.814 92.9148L100.431 91.1605C100.289 91.1889 100.026 91.2528 99.6852 91.2528C98.9963 91.2528 98.3784 91.0256 98.3784 89.7969V83.7955H100.616V82.0909Z" fill="black"/>
<path d="M76.1411 0H26.991C23.2908 0 20.2887 3.03824 20.2887 6.78304V56.5253C20.2887 60.2701 23.2908 63.3083 26.991 63.3083H76.1411C79.8413 63.3083 82.8434 60.2701 82.8434 56.5253V6.78304C82.8434 3.03824 79.8413 0 76.1411 0ZM54.3307 49.3749C54.3307 55.5361 50.7562 58.3482 45.5479 58.3482C40.8424 58.3482 38.1196 55.8894 36.7233 52.9077L41.5126 49.9825C42.4342 51.6359 43.272 53.0349 45.2966 53.0349C47.2235 53.0349 48.4523 52.2718 48.4523 49.2901V29.0681H54.3307V49.3749ZM68.238 58.3482C62.7784 58.3482 59.2457 55.7198 57.5283 52.2718L62.3176 49.4738C63.5743 51.5511 65.2219 53.0914 68.1123 53.0914C70.5419 53.0914 72.1057 51.862 72.1057 50.1521C72.1057 48.1172 70.514 47.3965 67.8191 46.1953L66.3529 45.5594C62.1082 43.7365 59.3016 41.433 59.3016 36.586C59.3016 32.1205 62.6667 28.729 67.9029 28.729C71.645 28.729 74.3259 30.0432 76.2528 33.4912L71.6729 36.4588C70.6675 34.6359 69.5784 33.9152 67.8889 33.9152C66.1714 33.9152 65.0823 35.0174 65.0823 36.4588C65.0823 38.2394 66.1714 38.9601 68.6987 40.0764L70.1649 40.7124C75.1637 42.8744 77.9702 45.0931 77.9702 50.0673C77.9702 55.4089 73.8092 58.3482 68.238 58.3482Z" fill="black" fill-opacity="0.75"/>
</svg>
