<svg width="68" height="100" viewBox="0 0 68 100" fill="none" xmlns="http://www.w3.org/2000/svg">
<path d="M35.3842 20.2734H28.924V14.3789H35.3842V20.2734ZM35.3842 0H28.924V6.02348H35.3842V0ZM43.0271 14.369H36.5668V20.2635H43.0271V14.369ZM27.7511 7.21428H21.2908V13.1782H27.7511V7.21428ZM35.3842 7.21428H28.924V13.1782H35.3842V7.21428ZM62.4373 17.1376C61.0299 16.1751 57.7851 15.8278 55.2929 16.3041C54.9703 13.9225 53.6607 11.8485 51.276 9.9829L49.9077 9.06003L48.9987 10.4493C47.2004 13.208 46.7117 17.7529 48.6371 20.7497C47.7868 21.2161 46.1155 21.8512 43.9067 21.8115H1.42132C0.571025 26.8526 1.98818 33.402 5.72166 37.8973C9.34763 42.2537 14.7817 44.4666 21.887 44.4666C37.2705 44.4666 48.6567 37.2721 53.9832 24.2031C56.0747 24.2428 60.5901 24.213 62.9064 19.7177C63.053 19.4696 63.5515 18.4078 63.7372 18.0208L62.4373 17.1376ZM12.4849 14.369H6.03441V20.2635H12.4947V14.369H12.4849ZM20.118 14.369H13.6577V20.2635H20.118V14.369ZM27.7511 14.369H21.2908V20.2635H27.7511V14.369ZM20.118 7.21428H13.6577V13.1782H20.118V7.21428Z" fill="black" fill-opacity="0.75"/>
<path d="M6.34197 84.0635C10.7738 84.0635 13.3377 81.3149 13.3377 76.7694C13.3377 72.2453 10.7738 69.518 6.49112 69.518H1.63317V84.0635H6.34197ZM3.82777 82.1459V71.4356H6.35618C9.538 71.4356 11.1786 73.339 11.1786 76.7694C11.1786 80.214 9.538 82.1459 6.22124 82.1459H3.82777ZM20.4915 84.2836C23.5668 84.2836 25.5767 82.0322 25.5767 78.6586C25.5767 75.2638 23.5668 73.0123 20.4915 73.0123C17.4162 73.0123 15.4062 75.2638 15.4062 78.6586C15.4062 82.0322 17.4162 84.2836 20.4915 84.2836ZM20.4986 82.501C18.4886 82.501 17.5511 80.7467 17.5511 78.6515C17.5511 76.5635 18.4886 74.7879 20.4986 74.7879C22.4943 74.7879 23.4318 76.5635 23.4318 78.6515C23.4318 80.7467 22.4943 82.501 20.4986 82.501ZM32.5423 84.2836C35.1204 84.2836 36.7894 82.7354 37.0238 80.6118H34.957C34.6871 81.7907 33.771 82.4868 32.5565 82.4868C30.7596 82.4868 29.6019 80.9882 29.6019 78.6089C29.6019 76.2723 30.7809 74.8021 32.5565 74.8021C33.9059 74.8021 34.7298 75.6544 34.957 76.6771H37.0238C36.7965 74.4754 34.9996 73.0123 32.521 73.0123C29.4457 73.0123 27.457 75.3277 27.457 78.6586C27.457 81.947 29.3746 84.2836 32.5423 84.2836ZM39.2947 84.0635H41.4183V80.1927L42.4766 79.1345L46.1839 84.0635H48.7905L44.0746 77.8348L48.4922 73.1544H45.9496L41.603 77.7709H41.4183V69.518H39.2947V84.0635ZM54.68 84.2836C57.0593 84.2836 58.7425 83.1118 59.2255 81.3362L57.2156 80.974C56.832 82.0038 55.9087 82.5294 54.7013 82.5294C52.8832 82.5294 51.6616 81.3504 51.6048 79.2481H59.3604V78.4953C59.3604 74.5535 57.0025 73.0123 54.5309 73.0123C51.4911 73.0123 49.4883 75.3277 49.4883 78.68C49.4883 82.0677 51.4627 84.2836 54.68 84.2836ZM51.6119 77.6572C51.6971 76.1089 52.8192 74.7666 54.5451 74.7666C56.1928 74.7666 57.2724 75.9882 57.2795 77.6572H51.6119ZM61.7166 84.0635H63.8402V77.4015C63.8402 75.974 64.9411 74.9442 66.4467 74.9442C66.8871 74.9442 67.3842 75.0223 67.5547 75.072V73.0407C67.3416 73.0123 66.9226 72.991 66.6527 72.991C65.3743 72.991 64.2805 73.7155 63.8828 74.8873H63.7692V73.1544H61.7166V84.0635Z" fill="black"/>
</svg>
