<svg width="102" height="110" viewBox="0 0 102 110" fill="none" xmlns="http://www.w3.org/2000/svg">
<path d="M80.2091 31.6542C80.2091 49.1411 66.2105 63.3083 48.9318 63.3083C31.653 63.3083 17.6544 49.1411 17.6544 31.6542C17.6544 14.1672 31.653 0 48.9318 0C66.2105 0 80.2091 14.1672 80.2091 31.6542ZM62.6058 11.7061C59.4292 11.8169 56.6612 13.5895 54.593 16.0427C52.3019 18.7333 50.7849 21.9245 49.6844 25.173C47.7295 23.5566 46.2224 21.4437 43.077 20.5258C41.8352 20.1417 40.5203 20.0648 39.243 20.3017C37.9657 20.5385 36.7633 21.0821 35.7366 21.8869C34.6711 22.7301 33.8881 23.8851 33.4944 25.1947C32.5581 28.2969 34.4934 31.0666 35.3691 32.0558L37.2927 34.137C37.6817 34.5406 38.6474 35.6109 38.1684 37.1363C37.67 38.806 35.6956 39.8763 33.6586 39.2492C32.7516 38.9702 31.4477 38.2818 31.7429 37.3203C31.8661 36.9187 32.1417 36.6318 32.2922 36.2915C32.4251 36.0007 32.4955 35.7752 32.5366 35.6525C32.9041 34.4259 32.4036 32.8274 31.0998 32.4257C29.8878 32.0439 28.6582 32.3446 28.1675 33.9194C27.628 35.7138 28.4725 38.9604 33.0155 40.3828C38.3405 42.0308 42.8288 39.1028 43.4699 35.2806C43.8687 32.8907 42.7975 31.1081 40.8427 28.831L39.2456 27.0366C38.2779 26.0692 37.9534 24.3994 38.9504 23.1214C39.7949 22.0372 40.9971 21.5862 42.9617 22.1223C45.8412 22.9156 47.1157 24.9237 49.2543 26.5519C48.3688 29.4799 47.7862 32.4159 47.2682 35.053L46.9535 37.0215C45.4267 45.1191 44.2656 49.5724 41.2317 52.1285C40.6198 52.5618 39.746 53.2206 38.4421 53.27C37.7482 53.2799 37.5136 52.8091 37.5136 52.5914C37.4921 52.1067 37.9026 51.8792 38.1763 51.6636C38.5731 51.4479 39.1947 51.0641 39.1439 49.881C39.1029 48.4803 37.9534 47.2636 36.2918 47.3171C35.0505 47.3566 33.1562 48.5417 33.2286 50.706C33.299 52.9515 35.3652 54.6311 38.4695 54.5184C40.1409 54.465 43.8472 53.7765 47.5008 49.3766C51.7565 44.3376 52.9489 38.5568 53.8443 34.323L54.8432 28.7459C55.4003 28.8093 55.9926 28.8508 56.6436 28.8706C61.9373 28.9834 64.5861 26.2037 64.6252 24.1838C64.6564 22.9572 63.8335 21.7524 62.6918 21.784C62.2012 21.7966 61.7285 21.9732 61.3476 22.2864C60.9667 22.5996 60.6991 23.0317 60.5865 23.5151C60.3421 24.6388 62.2754 25.6597 60.7683 26.6489C59.699 27.3472 57.7754 27.8438 55.0758 27.4402L55.5665 24.6883C56.5752 19.4752 57.8047 13.0653 62.5003 12.9129C62.8463 12.8912 64.0974 12.9208 64.1189 13.7577C64.1286 14.0347 64.07 14.1197 63.7435 14.7469C63.4393 15.1554 63.2845 15.6582 63.3056 16.1693C63.3447 17.4988 64.3437 18.3752 65.8 18.3218C67.7333 18.2605 68.2846 16.3434 68.2631 15.3641C68.183 13.0554 65.7785 11.6131 62.6019 11.7081L62.6058 11.7061Z" fill="black" fill-opacity="0.75"/>
<path d="M9.91602 83.4882H12.0325C11.9686 81.1587 9.90891 79.4683 6.95437 79.4683C4.03533 79.4683 1.79812 81.1374 1.79812 83.6445C1.79812 85.6686 3.24698 86.8547 5.58363 87.4868L7.30238 87.9555C8.85778 88.3675 10.0581 88.8788 10.0581 90.1715C10.0581 91.5919 8.70153 92.5294 6.83363 92.5294C5.14329 92.5294 3.73704 91.7766 3.6092 90.1928H1.40749C1.54954 92.8277 3.58789 94.4541 6.84783 94.4541C10.264 94.4541 12.2314 92.6572 12.2314 90.1928C12.2314 87.572 9.89471 86.5564 8.04812 86.1019L6.62766 85.7325C5.4913 85.4413 3.97852 84.9087 3.98562 83.5166C3.98562 82.2808 5.11488 81.3646 6.90465 81.3646C8.57369 81.3646 9.75977 82.1459 9.91602 83.4882ZM16.0257 98.3036C17.78 98.3036 18.888 97.3874 19.5201 95.6686L24.03 83.3249L21.736 83.3036L18.9732 91.7695H18.8596L16.0968 83.3036H13.824L17.8155 94.3547L17.5527 95.0791C17.013 96.528 16.253 96.6487 15.0882 96.3291L14.5769 98.0692C14.8326 98.1828 15.3865 98.3036 16.0257 98.3036ZM26.0311 94.2126H28.1547V87.4868C28.1547 86.0166 29.1845 84.9939 30.3919 84.9939C31.5708 84.9939 32.3876 85.7751 32.3876 86.9612V94.2126H34.5041V87.2595C34.5041 85.9456 35.3066 84.9939 36.6916 84.9939C37.8137 84.9939 38.737 85.6189 38.737 87.0962V94.2126H40.8606V86.8973C40.8606 84.4044 39.4686 83.1615 37.4941 83.1615C35.9245 83.1615 34.7456 83.9144 34.22 85.0791H34.1064C33.6305 83.8859 32.6291 83.1615 31.1731 83.1615C29.7314 83.1615 28.6589 83.8788 28.2044 85.0791H28.0694V83.3036H26.0311V94.2126ZM43.7069 98.3036H45.8304V92.5152H45.9583C46.3418 93.2112 47.123 94.4257 49.1117 94.4257C51.7537 94.4257 53.6713 92.3092 53.6713 88.7794C53.6713 85.2425 51.7253 83.1615 49.0904 83.1615C47.0662 83.1615 46.3347 84.3973 45.9583 85.072H45.7807V83.3036H43.7069V98.3036ZM45.7878 88.7581C45.7878 86.4783 46.7821 84.9655 48.6358 84.9655C50.5605 84.9655 51.5265 86.5919 51.5265 88.7581C51.5265 90.9456 50.5321 92.6146 48.6358 92.6146C46.8105 92.6146 45.7878 91.0521 45.7878 88.7581ZM58.1742 87.7354C58.1742 85.9953 59.275 85.001 60.7878 85.001C62.2509 85.001 63.1245 85.9314 63.1245 87.5294V94.2126H65.248V87.2737C65.248 84.5536 63.7566 83.1615 61.5123 83.1615C59.8148 83.1615 58.7921 83.9001 58.2807 85.0791H58.1458V79.6672H56.0506V94.2126H58.1742V87.7354ZM72.677 94.4328C75.7523 94.4328 77.7623 92.1814 77.7623 88.8078C77.7623 85.4129 75.7523 83.1615 72.677 83.1615C69.6017 83.1615 67.5918 85.4129 67.5918 88.8078C67.5918 92.1814 69.6017 94.4328 72.677 94.4328ZM72.6841 92.6501C70.6742 92.6501 69.7367 90.8959 69.7367 88.8007C69.7367 86.7126 70.6742 84.9371 72.6841 84.9371C74.6799 84.9371 75.6174 86.7126 75.6174 88.8007C75.6174 90.8959 74.6799 92.6501 72.6841 92.6501ZM82.2562 87.7354C82.2562 85.9953 83.3216 85.001 84.7988 85.001C86.2406 85.001 87.1142 85.9456 87.1142 87.5294V94.2126H89.2377V87.2737C89.2377 84.5749 87.7534 83.1615 85.5233 83.1615C83.8826 83.1615 82.8102 83.9215 82.3059 85.0791H82.171V83.3036H80.1326V94.2126H82.2562V87.7354ZM93.0375 98.3036C94.7917 98.3036 95.8997 97.3874 96.5318 95.6686L101.042 83.3249L98.7477 83.3036L95.9849 91.7695H95.8713L93.1085 83.3036H90.8358L94.8272 94.3547L94.5645 95.0791C94.0247 96.528 93.2647 96.6487 92.1 96.3291L91.5886 98.0692C91.8443 98.1828 92.3983 98.3036 93.0375 98.3036Z" fill="black"/>
</svg>
