<svg width="70" height="111" viewBox="0 0 70 111" fill="none" xmlns="http://www.w3.org/2000/svg">
<path d="M65.5225 14.4896C65.5426 14.5736 65.5547 14.6677 65.5547 14.7498V28.4995C65.5551 28.675 65.5088 28.8474 65.4204 28.9993C65.332 29.1512 65.2048 29.2771 65.0515 29.3641L53.4471 36.0148V49.1801C53.4475 49.3556 53.4012 49.528 53.3128 49.6799C53.2244 49.8318 53.0971 49.9577 52.9439 50.0447L28.7206 63.9085C28.6641 63.9397 28.6039 63.9639 28.5415 63.9805L28.4791 64.0125C28.3107 64.0546 28.1344 64.0546 27.9659 64.0125C27.9405 64.005 27.9161 63.9942 27.8935 63.9805C27.8353 63.9626 27.7793 63.9385 27.7264 63.9085L3.5132 50.0447C3.35893 49.958 3.23029 49.8325 3.14022 49.6807C3.05014 49.5289 3.00178 49.3563 3 49.1801V7.93296C3 7.8489 3.02013 7.75483 3.04226 7.67278C3.05233 7.64075 3.06239 7.62074 3.07447 7.58872L3.13685 7.43261C3.14692 7.40058 3.17912 7.38057 3.19924 7.34855L3.29384 7.22246C3.32772 7.20166 3.3594 7.17752 3.38843 7.15041C3.43069 7.11838 3.46088 7.08836 3.50314 7.06635L15.6108 0.133453C15.7639 0.0460127 15.9373 0 16.1139 0C16.2905 0 16.4639 0.0460127 16.617 0.133453L28.7347 7.06635C28.777 7.08636 28.8072 7.11838 28.8394 7.15041L28.944 7.22246C28.975 7.26259 29.0032 7.30471 29.0286 7.34855C29.0487 7.36856 29.0809 7.40058 29.101 7.43261L29.1634 7.58872C29.1735 7.62074 29.1956 7.64075 29.1956 7.67278C29.2261 7.75607 29.2404 7.84436 29.2379 7.93296V33.6911L39.3208 27.9171V14.7518C39.3246 14.6335 39.3498 14.5169 39.3953 14.4075L39.4577 14.2514C39.4778 14.2094 39.51 14.1894 39.5301 14.1574C39.5623 14.1153 39.5825 14.0733 39.6147 14.0433C39.6469 14.0133 39.6871 13.9912 39.7193 13.9712C39.7495 13.9379 39.7849 13.9095 39.824 13.8872L51.9417 6.95427C52.093 6.86189 52.2672 6.81299 52.4448 6.81299C52.6224 6.81299 52.7966 6.86189 52.9479 6.95427L65.0556 13.8872C65.0978 13.9072 65.128 13.9392 65.1703 13.9712C65.2025 13.9912 65.2327 14.0133 65.2649 14.0433C65.2971 14.0733 65.3272 14.1153 65.3595 14.1574C65.3796 14.1894 65.4118 14.2094 65.4218 14.2514C65.454 14.3035 65.4641 14.3555 65.4842 14.4075C65.5044 14.4275 65.5164 14.4596 65.5265 14.4916L65.5225 14.4896ZM63.53 27.9151V16.491L59.2956 18.9087L53.4471 22.2651V33.6891L63.53 27.9151ZM51.4345 48.5957V37.1596L45.6685 40.4219L29.2318 49.7625V61.3026L51.4345 48.5957ZM5.00854 9.67219V48.5957L27.2092 61.3026V49.7625L15.6047 43.2259C15.5625 43.2059 15.5323 43.1738 15.5001 43.1418C15.4679 43.1218 15.4276 43.0998 15.4055 43.0698H15.3954C15.3632 43.0377 15.3431 42.9977 15.3109 42.9657C15.2908 42.9337 15.2586 42.9036 15.2384 42.8616C15.215 42.8223 15.1974 42.7798 15.1861 42.7355C15.166 42.6935 15.1438 42.6635 15.1338 42.6214C15.1237 42.5794 15.1137 42.5274 15.1137 42.4753C15.1036 42.4333 15.0935 42.4033 15.0935 42.3613V15.4463L9.245 12.0899L5.00854 9.67219ZM16.1099 2.15688L6.0269 7.93096L16.1099 13.705L26.1928 7.93096L16.1099 2.15688ZM21.3607 38.2043L27.2092 34.848V9.67419L22.9747 12.0919L17.1162 15.4483V40.622L21.3607 38.2043ZM52.4408 8.97369L42.3457 14.7478L52.4408 20.5218L62.5237 14.7478L52.4408 8.97369ZM51.4345 22.2651L41.3394 16.491V27.9151L47.188 31.2714L51.4325 33.6891L51.4345 22.2651ZM28.2175 48.0233L50.4081 35.4304L40.3352 29.6563L18.1546 42.3533L28.2175 48.0233Z" fill="black" fill-opacity="0.75"/>
<path d="M2.06603 95.1062H10.8515V93.217H4.26063V80.5607H2.06603V95.1062ZM16.3594 95.3477C18.1633 95.3477 19.179 94.4315 19.5838 93.6147H19.669V95.1062H21.7429V87.8619C21.7429 84.6872 19.2429 84.0551 17.5099 84.0551C15.5355 84.0551 13.7173 84.8505 13.0071 86.8392L15.0028 87.2937C15.3153 86.5196 16.1108 85.7738 17.5383 85.7738C18.9091 85.7738 19.6122 86.4911 19.6122 87.7269V87.7767C19.6122 88.5508 18.8167 88.5366 16.8565 88.7639C14.7898 89.0053 12.6733 89.5451 12.6733 92.0238C12.6733 94.1687 14.2855 95.3477 16.3594 95.3477ZM16.821 93.6431C15.6207 93.6431 14.7542 93.1034 14.7542 92.0522C14.7542 90.9159 15.7628 90.511 16.9915 90.3477C17.6804 90.2553 19.3139 90.0707 19.6193 89.7653V91.1715C19.6193 92.4642 18.5895 93.6431 16.821 93.6431ZM24.5714 95.1062H26.6949V88.4443C26.6949 87.0167 27.7958 85.9869 29.3015 85.9869C29.7418 85.9869 30.239 86.065 30.4094 86.1147V84.0835C30.1964 84.0551 29.7773 84.0338 29.5074 84.0338C28.229 84.0338 27.1353 84.7582 26.7375 85.9301H26.6239V84.1971H24.5714V95.1062ZM35.3242 95.3477C37.1282 95.3477 38.1438 94.4315 38.5486 93.6147H38.6339V95.1062H40.7077V87.8619C40.7077 84.6872 38.2077 84.0551 36.4748 84.0551C34.5003 84.0551 32.6822 84.8505 31.9719 86.8392L33.9677 87.2937C34.2802 86.5196 35.0756 85.7738 36.5032 85.7738C37.8739 85.7738 38.577 86.4911 38.577 87.7269V87.7767C38.577 88.5508 37.7816 88.5366 35.8214 88.7639C33.7546 89.0053 31.6381 89.5451 31.6381 92.0238C31.6381 94.1687 33.2503 95.3477 35.3242 95.3477ZM35.7858 93.6431C34.5856 93.6431 33.7191 93.1034 33.7191 92.0522C33.7191 90.9159 34.7276 90.511 35.9563 90.3477C36.6452 90.2553 38.2787 90.0707 38.5841 89.7653V91.1715C38.5841 92.4642 37.5543 93.6431 35.7858 93.6431ZM52.478 84.1971H50.1981L47.4424 92.592H47.3288L44.566 84.1971H42.2862L46.2493 95.1062H48.522L52.478 84.1971ZM58.7848 95.3264C61.164 95.3264 62.8473 94.1545 63.3302 92.3789L61.3203 92.0167C60.9368 93.0465 60.0135 93.5721 58.8061 93.5721C56.9879 93.5721 55.7663 92.3931 55.7095 90.2909H63.4652V89.538C63.4652 85.5963 61.1072 84.0551 58.6356 84.0551C55.5959 84.0551 53.593 86.3704 53.593 89.7227C53.593 93.1105 55.5674 95.3264 58.7848 95.3264ZM55.7166 88.7C55.8018 87.1517 56.924 85.8093 58.6498 85.8093C60.2976 85.8093 61.3771 87.0309 61.3842 88.7H55.7166ZM67.9449 80.5607H65.8214V95.1062H67.9449V80.5607Z" fill="black"/>
</svg>
